<?xml version="1.0" encoding="utf-8"?>
<!-- Generator: Adobe Illustrator 19.0.0, SVG Export Plug-In . SVG Version: 6.00 Build 0)  -->
<svg version="1.1" xmlns="http://www.w3.org/2000/svg" xmlns:xlink="http://www.w3.org/1999/xlink"
	 viewBox="0 0 145.3 48.7" style="enable-background:new 0 0 145.3 48.7;" xml:space="preserve">
<style type="text/css">
	.st0{fill:#01539C;}
</style>
<path id="XMLID_68_" class="st0" d="M38.9,36l-0.4-1.8L37.1,36H38.9z M39.1,36.7h-2.5l-0.8,1h-1.3l3.6-4.4h1.4l1,4.4h-1.2L39.1,36.7
	z"/>
<polygon id="XMLID_67_" class="st0" points="41.3,37.7 42.6,33.3 43.9,33.3 42.5,37.7 "/>
<polygon id="XMLID_66_" class="st0" points="48.5,37.7 47.4,37.7 47.1,35.6 45.7,37.7 44.6,37.7 44,34.5 45.1,34.5 45.4,36.6 
	46.9,34.5 48,34.5 48.1,36.6 49.6,34.5 50.8,34.5 "/>
<g id="XMLID_7_">
	<path id="XMLID_63_" class="st0" d="M53.5,36.2c-0.1,0-0.2,0-0.3,0c-0.6,0.1-1,0.1-1.2,0.2c-0.1,0.1-0.2,0.2-0.2,0.3
		c0,0.1,0.1,0.2,0.2,0.3c0.1,0.1,0.2,0.1,0.4,0.1c0.2,0,0.4,0,0.5-0.1c0.2-0.1,0.3-0.1,0.4-0.2c0.1-0.1,0.2-0.3,0.2-0.5L53.5,36.2z
		 M52.3,35.4l-1.2-0.1c0.1-0.3,0.4-0.5,0.7-0.7c0.3-0.2,0.8-0.2,1.4-0.2c0.6,0,1,0.1,1.3,0.2c0.3,0.2,0.4,0.4,0.4,0.6
		c0,0.1,0,0.2,0,0.3c0,0.1-0.1,0.4-0.3,0.9c-0.1,0.4-0.2,0.6-0.2,0.8c0,0.1,0,0.3,0.1,0.5h-1.2c0-0.1-0.1-0.2-0.1-0.4
		c-0.2,0.1-0.4,0.2-0.6,0.3c-0.2,0.1-0.5,0.1-0.7,0.1c-0.4,0-0.7-0.1-0.9-0.3c-0.2-0.2-0.4-0.4-0.4-0.7c0-0.3,0.1-0.5,0.4-0.7
		c0.3-0.2,0.8-0.3,1.4-0.3c0.6,0,1-0.1,1.2-0.1c0.1-0.1,0.1-0.2,0.1-0.3c0-0.1-0.1-0.2-0.2-0.2S53.3,35,53.1,35
		c-0.2,0-0.4,0-0.5,0.1C52.5,35.2,52.4,35.3,52.3,35.4"/>
	<path id="XMLID_62_" class="st0" d="M55.9,34.5h1.2l0.3,1.6c0.1,0.4,0.1,0.7,0.1,0.9c0.2-0.3,0.4-0.7,0.7-1l1.1-1.4h1.3L57.8,38
		c-0.2,0.3-0.4,0.5-0.5,0.6c-0.1,0.1-0.3,0.2-0.5,0.3c-0.2,0.1-0.4,0.1-0.7,0.1c-0.3,0-0.6,0-0.9-0.1l0.1-0.6c0.1,0,0.3,0,0.4,0
		c0.4,0,0.7-0.2,0.9-0.6L55.9,34.5z"/>
	<path id="XMLID_61_" class="st0" d="M60.2,36.8l1.2-0.1c0.1,0.2,0.2,0.3,0.4,0.4c0.2,0.1,0.4,0.1,0.6,0.1c0.3,0,0.5,0,0.7-0.1
		c0.1-0.1,0.2-0.1,0.2-0.2c0-0.1,0-0.1-0.1-0.2c-0.1,0-0.2-0.1-0.5-0.2c-0.7-0.2-1.2-0.3-1.4-0.4c-0.3-0.2-0.4-0.4-0.4-0.6
		c0-0.3,0.1-0.5,0.4-0.7c0.4-0.3,0.9-0.4,1.7-0.4c0.6,0,1,0.1,1.3,0.2c0.3,0.2,0.5,0.4,0.6,0.6l-1.1,0.1c-0.1-0.1-0.2-0.2-0.3-0.3
		C63.2,35,63,35,62.8,35c-0.3,0-0.4,0-0.6,0.1c-0.1,0.1-0.2,0.1-0.2,0.2c0,0.1,0.1,0.1,0.2,0.2c0.1,0,0.3,0.1,0.7,0.2
		c0.6,0.1,1,0.2,1.2,0.4c0.3,0.2,0.4,0.4,0.4,0.6c0,0.3-0.2,0.6-0.5,0.8c-0.4,0.2-0.9,0.3-1.5,0.3c-0.7,0-1.2-0.1-1.5-0.3
		C60.6,37.3,60.3,37.1,60.2,36.8"/>
</g>
<polygon id="XMLID_59_" class="st0" points="71.3,37.7 70.1,37.7 69.8,34 68.9,37.7 67.7,37.7 69,33.3 70.8,33.3 71,36.3 73.2,33.3 
	75,33.3 73.7,37.7 72.5,37.7 73.8,34 "/>
<g id="XMLID_6_">
	<path id="XMLID_56_" class="st0" d="M78.7,35.7c0-0.2-0.1-0.4-0.3-0.5C78.3,35.1,78,35,77.8,35c-0.3,0-0.5,0.1-0.7,0.2
		c-0.2,0.1-0.4,0.3-0.5,0.5c-0.1,0.2-0.2,0.4-0.2,0.6c0,0.2,0.1,0.4,0.3,0.5c0.2,0.1,0.4,0.2,0.7,0.2c0.3,0,0.6-0.1,0.8-0.3
		C78.5,36.5,78.7,36.1,78.7,35.7 M75.2,36.3c0-0.6,0.2-1.1,0.7-1.4c0.5-0.4,1.1-0.5,1.9-0.5c0.7,0,1.2,0.1,1.6,0.4
		c0.4,0.3,0.6,0.6,0.6,1c0,0.5-0.2,1-0.7,1.3c-0.5,0.4-1.1,0.6-1.9,0.6c-0.4,0-0.8-0.1-1.1-0.2c-0.3-0.1-0.6-0.3-0.7-0.5
		C75.3,36.8,75.2,36.6,75.2,36.3"/>
	<path id="XMLID_55_" class="st0" d="M82.6,37.7h-1.1l-0.9-3.2h1.2l0.3,1.4c0.1,0.4,0.1,0.6,0.2,0.8c0,0,0.1-0.2,0.3-0.4
		c0.2-0.2,0.3-0.4,0.3-0.4l1.1-1.3h1.3L82.6,37.7z"/>
</g>
<path id="XMLID_51_" class="st0" d="M86.6,33.3h1.2L87.6,34h-1.2L86.6,33.3z M86.2,34.5h1.2l-1,3.2h-1.2L86.2,34.5z"/>
<g id="XMLID_5_">
	<path id="XMLID_50_" class="st0" d="M88.7,34.5h1.2l-0.1,0.4c0.3-0.2,0.6-0.3,0.8-0.4s0.5-0.1,0.8-0.1c0.4,0,0.7,0.1,0.9,0.2
		c0.2,0.2,0.3,0.3,0.3,0.6c0,0.1,0,0.3-0.1,0.6l-0.5,1.8h-1.2l0.5-1.8c0.1-0.3,0.1-0.4,0.1-0.5c0-0.1,0-0.2-0.1-0.3
		C91,35,90.9,35,90.7,35c-0.2,0-0.4,0.1-0.6,0.2c-0.2,0.1-0.4,0.2-0.5,0.4c-0.1,0.1-0.2,0.4-0.3,0.8l-0.4,1.3h-1.2L88.7,34.5z"/>
	<path id="XMLID_47_" class="st0" d="M94.4,36.3c0,0.2,0.1,0.4,0.2,0.6C94.8,37,95,37,95.3,37c0.2,0,0.4-0.1,0.6-0.2
		c0.2-0.1,0.4-0.3,0.5-0.5c0.1-0.2,0.2-0.4,0.2-0.6c0-0.2-0.1-0.4-0.3-0.5c-0.2-0.1-0.4-0.2-0.6-0.2c-0.2,0-0.4,0.1-0.6,0.2
		c-0.2,0.1-0.3,0.3-0.5,0.6C94.5,36,94.4,36.1,94.4,36.3 M93,37.8l1.3,0.1c0,0.1,0,0.2,0.1,0.2c0,0,0.1,0.1,0.2,0.1
		c0.1,0,0.2,0,0.4,0c0.3,0,0.5,0,0.6-0.1c0.1-0.1,0.2-0.1,0.3-0.3c0-0.1,0.1-0.2,0.2-0.5l0-0.1c-0.4,0.2-0.9,0.4-1.3,0.4
		c-0.4,0-0.8-0.1-1.1-0.3c-0.3-0.2-0.4-0.5-0.4-1c0-0.4,0.1-0.7,0.3-1c0.2-0.3,0.5-0.5,0.8-0.7c0.4-0.2,0.7-0.2,1.1-0.2
		c0.3,0,0.6,0.1,0.8,0.2c0.3,0.1,0.4,0.3,0.6,0.5l0.2-0.6h1.2l-0.8,2.7c-0.1,0.4-0.2,0.7-0.3,0.9c-0.1,0.2-0.2,0.3-0.3,0.4
		c-0.1,0.1-0.3,0.2-0.4,0.3c-0.2,0.1-0.4,0.1-0.6,0.2c-0.2,0-0.5,0-0.8,0c-0.6,0-1.1-0.1-1.5-0.2C93.1,38.6,93,38.3,93,38
		C93,37.9,93,37.9,93,37.8"/>
</g>
<polygon id="XMLID_45_" class="st0" points="100.8,37.7 102.2,33.3 106.6,33.3 106.3,34 103.2,34 102.9,35.1 106,35.1 105.7,35.8 
	102.7,35.8 102.1,37.7 "/>
<g id="XMLID_3_">
	<path id="XMLID_42_" class="st0" d="M109.9,35.7c0-0.2-0.1-0.4-0.3-0.5c-0.2-0.1-0.4-0.2-0.7-0.2c-0.3,0-0.5,0.1-0.7,0.2
		c-0.2,0.1-0.4,0.3-0.5,0.5c-0.1,0.2-0.2,0.4-0.2,0.6c0,0.2,0.1,0.4,0.3,0.5c0.2,0.1,0.4,0.2,0.7,0.2c0.3,0,0.6-0.1,0.8-0.3
		C109.7,36.5,109.9,36.1,109.9,35.7 M106.4,36.3c0-0.6,0.2-1.1,0.7-1.4c0.5-0.4,1.1-0.5,1.9-0.5c0.7,0,1.2,0.1,1.6,0.4
		c0.4,0.3,0.6,0.6,0.6,1c0,0.5-0.2,1-0.7,1.3c-0.5,0.4-1.1,0.6-1.9,0.6c-0.4,0-0.8-0.1-1.1-0.2c-0.3-0.1-0.6-0.3-0.7-0.5
		C106.5,36.8,106.4,36.6,106.4,36.3"/>
	<path id="XMLID_41_" class="st0" d="M112.5,34.5h1.1l-0.2,0.6c0.4-0.5,0.9-0.7,1.4-0.7c0.2,0,0.4,0,0.6,0.1l-0.5,0.7
		c-0.1,0-0.2,0-0.4,0c-0.2,0-0.4,0.1-0.6,0.2c-0.2,0.1-0.4,0.3-0.5,0.4c-0.1,0.2-0.2,0.5-0.4,0.9l-0.3,1h-1.2L112.5,34.5z"/>
</g>
<polygon id="XMLID_39_" class="st0" points="119.8,37.7 118.6,37.7 118.4,35.6 117,37.7 115.8,37.7 115.3,34.5 116.4,34.5 
	116.7,36.6 118.1,34.5 119.2,34.5 119.4,36.6 120.8,34.5 122,34.5 "/>
<g id="XMLID_4_">
	<path id="XMLID_36_" class="st0" d="M124.7,36.2c-0.1,0-0.2,0-0.3,0c-0.6,0.1-1,0.1-1.2,0.2c-0.1,0.1-0.2,0.2-0.2,0.3
		c0,0.1,0.1,0.2,0.2,0.3c0.1,0.1,0.2,0.1,0.4,0.1c0.2,0,0.4,0,0.5-0.1c0.2-0.1,0.3-0.1,0.4-0.2c0.1-0.1,0.2-0.3,0.2-0.5L124.7,36.2z
		 M123.6,35.4l-1.2-0.1c0.1-0.3,0.4-0.5,0.7-0.7c0.3-0.2,0.8-0.2,1.4-0.2c0.6,0,1,0.1,1.3,0.2c0.3,0.2,0.4,0.4,0.4,0.6
		c0,0.1,0,0.2,0,0.3c0,0.1-0.1,0.4-0.3,0.9c-0.1,0.4-0.2,0.6-0.2,0.8c0,0.1,0,0.3,0.1,0.5h-1.2c0-0.1-0.1-0.2-0.1-0.4
		c-0.2,0.1-0.4,0.2-0.6,0.3c-0.2,0.1-0.5,0.1-0.7,0.1c-0.4,0-0.7-0.1-0.9-0.3c-0.2-0.2-0.4-0.4-0.4-0.7c0-0.3,0.1-0.5,0.4-0.7
		c0.3-0.2,0.8-0.3,1.4-0.3c0.6,0,1-0.1,1.2-0.1c0.1-0.1,0.1-0.2,0.1-0.3c0-0.1-0.1-0.2-0.2-0.2c-0.1-0.1-0.3-0.1-0.5-0.1
		c-0.2,0-0.4,0-0.5,0.1C123.7,35.2,123.6,35.3,123.6,35.4"/>
	<path id="XMLID_35_" class="st0" d="M127.6,34.5h1.1l-0.2,0.6c0.4-0.5,0.9-0.7,1.4-0.7c0.2,0,0.4,0,0.6,0.1l-0.5,0.7
		c-0.1,0-0.2,0-0.4,0c-0.2,0-0.4,0.1-0.6,0.2c-0.2,0.1-0.4,0.3-0.5,0.4c-0.1,0.2-0.2,0.5-0.4,0.9l-0.3,1h-1.2L127.6,34.5z"/>
	<path id="XMLID_32_" class="st0" d="M131.5,36.4c0,0.2,0.1,0.4,0.2,0.5c0.2,0.1,0.4,0.2,0.6,0.2c0.2,0,0.4-0.1,0.6-0.2
		s0.3-0.3,0.5-0.5c0.1-0.2,0.2-0.4,0.2-0.6c0-0.2-0.1-0.4-0.3-0.6c-0.2-0.1-0.4-0.2-0.6-0.2c-0.4,0-0.7,0.1-0.9,0.4
		C131.6,35.7,131.5,36,131.5,36.4 M134.3,37.7h-1.2l0.1-0.3c-0.2,0.2-0.4,0.3-0.7,0.3c-0.2,0.1-0.5,0.1-0.7,0.1
		c-0.5,0-0.9-0.1-1.1-0.3c-0.3-0.2-0.4-0.6-0.4-1c0-0.5,0.2-1,0.6-1.4c0.4-0.4,1-0.6,1.6-0.6c0.6,0,1.1,0.2,1.4,0.5l0.5-1.6h1.2
		L134.3,37.7z"/>
</g>
<path id="XMLID_28_" class="st0" d="M38.6,18l2.1-5.3L35.4,18H38.6z M31.6,18l9.1-9.4h4.9l-7.4,19.4H35l2.6-7.1h-5l-6.9,7.1h-4
	l7-7.2H9.1l1.3-2.8L31.6,18z"/>
<g id="XMLID_2_">
	<path id="XMLID_27_" class="st0" d="M50.3,24.6c-0.9,0.7-2,1.1-3.2,1.1c-2,0.1-3.5-1.2-2.8-3c0.8-1.9,3.2-3.3,5.2-3.2
		c1.1,0.1,2,0.5,2.3,1.1l3.6,0c0-2.1-1.9-3.6-4.8-3.7c-3.7-0.2-7.8,1.8-9.3,5.3c-1.3,3.2,1.2,6.1,4.9,5.9c3-0.1,5.8-1.6,7.6-3.7
		L50.3,24.6z"/>
	<path id="XMLID_26_" class="st0" d="M64.4,24.6c-0.9,0.7-2,1.1-3.2,1.1c-2,0.1-3.5-1.2-2.8-3c0.8-1.9,3.2-3.3,5.2-3.2
		c1.1,0.1,2,0.5,2.3,1.1l3.6,0c0-2.1-1.9-3.6-4.8-3.7c-3.7-0.2-7.8,1.8-9.3,5.3c-1.3,3.2,1.2,6.1,4.9,5.9c3-0.1,5.8-1.6,7.6-3.7
		L64.4,24.6z"/>
	<path id="XMLID_25_" class="st0" d="M71.5,17.2L69,23.7c0,0-1.4,4.4,3.2,4.4c1.5,0,2.7-0.4,4-1.1l-0.4,0.9h2.9L83,17.2h-3.2
		l-2.1,5.4c0,0-0.9,3-3.9,3c-2.6,0-1.4-2.5-1.4-2.5l2.2-5.9H71.5z"/>
	<path id="XMLID_24_" class="st0" d="M84.8,17.2l-4.2,10.7h3.1l2.5-6c0,0,0.8-2.5,3.6-2.5l0.9-2.5c0,0-1.8-0.1-3.3,1.1l0.3-0.8H84.8
		z"/>
</g>
<polygon id="XMLID_22_" class="st0" points="91.9,17.2 87.7,27.9 90.9,27.9 95,17.2 "/>
<g id="XMLID_1_">
	<path id="XMLID_21_" class="st0" d="M96.1,14.9c-0.3,0.8-1.2,1.4-2.2,1.4c-0.9,0-1.5-0.6-1.2-1.4c0.3-0.8,1.2-1.4,2.2-1.4
		C95.8,13.5,96.3,14.1,96.1,14.9"/>
	<path id="XMLID_18_" class="st0" d="M99.8,25.4c-2.2,0-3.4-1.4-2.8-3c0.6-1.7,2.9-3,5-3c2.1,0,3.4,1.3,2.9,2.9l-0.2,0.4
		C104,24.2,101.9,25.4,99.8,25.4 M108.3,13.7l-1.6,4c-0.8-0.6-1.9-0.9-3.3-0.9c-4.9,0-8,2.3-9.3,5.5C92.8,25.4,95.7,28,99,28
		c1.4,0,2.8-0.3,4-0.9l-0.3,0.8h3.1l5.5-14.3H108.3z"/>
	<path id="XMLID_15_" class="st0" d="M119.4,21.6h-6.9c1.1-1.3,2.9-2.1,4.5-2c1.1,0.1,1.9,0.5,2.3,1.1
		C119.6,21.3,119.4,21.6,119.4,21.6 M122.9,20.7c0-2.1-1.9-3.6-4.8-3.7c-3.7-0.2-7.8,1.8-9.3,5.3c-1.3,3.2,1.2,6.1,4.9,5.9
		c3-0.1,5.8-1.6,7.6-3.7l-3.5,0c-0.9,0.7-2,1.1-3.2,1.1c-1.6,0.1-2.9-0.8-3-2h10C122.8,22.5,122.9,20.7,122.9,20.7"/>
	<path id="XMLID_10_" class="st0" d="M123.7,16.7h0.3c0.1,0,0.2,0,0.3-0.1c0,0,0.1-0.1,0.1-0.2c0,0,0-0.1,0-0.1c0,0-0.1-0.1-0.1-0.1
		c0,0-0.1,0-0.2,0h-0.3V16.7z M123.4,17.5V16h0.5c0.2,0,0.3,0,0.4,0c0.1,0,0.1,0.1,0.2,0.1c0,0.1,0.1,0.1,0.1,0.2
		c0,0.1,0,0.2-0.1,0.3c-0.1,0.1-0.2,0.1-0.3,0.1c0,0,0.1,0,0.1,0.1c0.1,0.1,0.1,0.2,0.2,0.3l0.2,0.3h-0.3l-0.1-0.2
		c-0.1-0.2-0.2-0.3-0.2-0.3c0,0-0.1,0-0.2,0h-0.1v0.6H123.4z M124,15.6c-0.2,0-0.4,0-0.6,0.1c-0.2,0.1-0.3,0.2-0.4,0.4
		c-0.1,0.2-0.2,0.4-0.2,0.6c0,0.2,0.1,0.4,0.2,0.6c0.1,0.2,0.2,0.3,0.4,0.4c0.2,0.1,0.4,0.1,0.6,0.1c0.2,0,0.4,0,0.6-0.1
		c0.2-0.1,0.3-0.2,0.4-0.4c0.1-0.2,0.1-0.4,0.1-0.6c0-0.2-0.1-0.4-0.1-0.6c-0.1-0.2-0.2-0.3-0.4-0.4C124.4,15.6,124.2,15.6,124,15.6
		 M124,15.4c0.2,0,0.4,0.1,0.7,0.2c0.2,0.1,0.4,0.3,0.5,0.5c0.1,0.2,0.2,0.4,0.2,0.7c0,0.2-0.1,0.5-0.2,0.7
		c-0.1,0.2-0.3,0.4-0.5,0.5c-0.2,0.1-0.4,0.2-0.7,0.2c-0.2,0-0.5-0.1-0.7-0.2c-0.2-0.1-0.4-0.3-0.5-0.5c-0.1-0.2-0.2-0.4-0.2-0.7
		c0-0.2,0.1-0.5,0.2-0.7c0.1-0.2,0.3-0.4,0.5-0.5C123.6,15.4,123.8,15.4,124,15.4"/>
</g>
</svg>
