<?xml version="1.0" encoding="UTF-8"?>
<svg xmlns="http://www.w3.org/2000/svg" width="138" height="27" viewBox="0 0 138 27" fill="none">
  <g clip-path="url(#clip0_8008_46662)">
    <path d="M12.9999 1H12.5283C5.62476 1 0.0283203 6.59642 0.0283203 13.5C0.0283203 20.4035 5.62476 25.9999 12.5283 25.9999H12.9999C19.9035 25.9999 25.4999 20.4035 25.4999 13.5C25.4999 6.59642 19.9035 1 12.9999 1Z" fill="#FEDC00"></path>
    <path d="M25.4716 1.11731H12.0781V14.4975H25.4716V1.11731Z" fill="#FEDC00"></path>
    <path d="M13.3935 12.6198H0V26H13.3935V12.6198Z" fill="#FEDC00"></path>
    <path d="M13.1028 0.505493H12.8101C5.77949 0.505493 0.0800781 6.20491 0.0800781 13.2355V13.2356C0.0800781 20.2662 5.77949 25.9656 12.8101 25.9656H13.1028C20.1334 25.9656 25.8328 20.2662 25.8328 13.2356V13.2355C25.8328 6.20491 20.1334 0.505493 13.1028 0.505493Z" fill="#FEDC00"></path>
    <path d="M12.2065 0.212929L26.0981 0.196899L25.9784 14.2131H12.2065V0.212929Z" fill="#FEDC00"></path>
    <path d="M13.6795 12.422H0.0532227V26.1517H13.6795V12.422Z" fill="#FEDC00"></path>
    <mask id="mask0_8008_46662" style="mask-type:alpha" maskUnits="userSpaceOnUse" x="0" y="0" width="27" height="27">
      <path d="M26.107 0H0V26.5905H26.107V0Z" fill="#D9D9D9"></path>
    </mask>
    <g mask="url(#mask0_8008_46662)">
      <path fill-rule="evenodd" clip-rule="evenodd" d="M11.6322 0.223844C12.0142 0.189621 12.3998 0.170341 12.7908 0.170658L25.8392 0.189383L26.0979 0.189761L16.9338 9.2868C12.3901 13.8134 5.35972 14.3151 0.266602 10.8043C1.31667 5.21405 5.91666 0.879039 11.6322 0.223844Z" fill="#FEDC00"></path>
      <path fill-rule="evenodd" clip-rule="evenodd" d="M0.0483398 17.5232L0.0592247 12.8546C0.0595457 12.6828 0.0659905 12.5123 0.0734157 12.3418C0.10966 11.8207 0.173341 11.3069 0.267887 10.8039C5.36125 14.3148 12.3914 13.8129 16.9351 9.28637L26.0992 0.189819L21.1284 12.0978C18.347 18.7768 10.6785 21.9424 4.00036 19.1659L0.0483398 17.5232Z" fill="#FFC907"></path>
      <path fill-rule="evenodd" clip-rule="evenodd" d="M0.0492798 17.5232L4.0013 19.1659C10.6793 21.9424 18.3479 18.7768 21.1293 12.0978L26.0992 0.189575H26.1033L26.0733 13.0883C26.0567 20.3208 20.1786 26.1768 12.9444 26.1668L0.0292969 26.148L0.0492798 17.5232Z" fill="#FBAA19"></path>
    </g>
    <path d="M54.5908 4.11976C52.0175 1.57187 48.7598 0.266235 44.9443 0.266235C42.5865 0.266235 40.3555 0.86201 38.3274 2.04088C36.2992 3.21976 34.6767 4.86764 33.4978 6.93384C32.3189 9.01271 31.7231 11.2817 31.7231 13.7155C31.7231 17.3535 33.0288 20.5099 35.6147 23.0704C38.2006 25.631 41.395 26.9366 45.1471 26.9366C48.8992 26.9366 52.0302 25.631 54.6034 23.0578C57.1767 20.4845 58.4823 17.3028 58.4823 13.6014C58.4696 9.90004 57.1767 6.66764 54.5908 4.11976ZM55.2626 13.5888C55.2626 15.5028 54.8189 17.2648 53.9316 18.8113C53.0443 20.3704 51.802 21.6127 50.2302 22.5127C48.6584 23.4127 46.9091 23.869 45.0584 23.869C42.2823 23.869 39.8865 22.8803 37.9091 20.9282C35.9443 18.9761 34.9429 16.5423 34.9429 13.7028C34.9429 11.7888 35.3992 10.0141 36.2865 8.45497C37.1738 6.89581 38.4288 5.64088 40.0133 4.71553C41.5978 3.79018 43.2964 3.33384 45.0584 3.33384C46.8203 3.33384 48.5823 3.80285 50.1922 4.72821C51.802 5.65356 53.057 6.89581 53.9443 8.41694C54.8189 9.95074 55.2626 11.6874 55.2626 13.5888Z" fill="#2B2E39"></path>
    <path d="M135.109 10.0395C133.195 7.93527 130.761 6.87048 127.846 6.87048C124.93 6.87048 122.484 7.94795 120.57 10.0522C118.833 11.9663 117.958 14.2606 117.958 16.8719C117.958 19.4831 118.884 21.8409 120.722 23.8057C122.56 25.7831 124.956 26.7845 127.846 26.7845C130.736 26.7845 133.119 25.7831 134.957 23.8057C136.782 21.8409 137.72 19.5085 137.72 16.8719C137.72 14.2352 136.846 11.9536 135.109 10.0395ZM127.846 9.83668C129.697 9.83668 131.306 10.5339 132.65 11.9156C133.994 13.2972 134.678 14.9831 134.678 16.9352C134.678 18.1902 134.374 19.3944 133.753 20.4845C133.144 21.5747 132.308 22.424 131.281 23.0071C130.242 23.6029 129.088 23.8944 127.846 23.8944C126.604 23.8944 125.45 23.5902 124.411 23.0071C123.371 22.4113 122.547 21.562 121.926 20.4845C121.318 19.3944 121.001 18.2029 121.001 16.9352C121.001 14.9831 121.685 13.2845 123.016 11.9156C124.373 10.5339 125.995 9.83668 127.846 9.83668Z" fill="#2B2E39"></path>
    <path d="M101.822 7.04792V0.342285H100.466C99.5911 0.342285 98.8812 1.05214 98.8812 1.92679V7.0606H97.1573C96.2826 7.0606 95.5728 7.77045 95.5728 8.6451V9.67186H98.8685V26.3535H100.225C101.1 26.3535 101.797 25.6437 101.797 24.769V9.65919H104.053C104.928 9.65919 105.625 8.94933 105.625 8.07468V7.04792H101.822Z" fill="#2B2E39"></path>
    <path d="M79.0304 16.555V24.9212C78.9797 25.6817 78.3205 26.2902 77.5219 26.3028H76.0135V17.2395C76.0135 15.1606 75.9247 13.7662 75.7599 13.0944C75.5064 11.9536 75.0121 11.1043 74.3022 10.5338C73.5923 9.9761 72.6416 9.68455 71.4754 9.68455C70.1318 9.68455 68.9149 10.1282 67.8501 11.0155C66.7853 11.9029 66.0628 13.031 65.7205 14.3493C65.505 15.224 65.3909 16.8719 65.3909 19.255V24.9338C65.3656 25.2381 65.2515 25.5296 65.0613 25.7578C64.998 25.8338 64.9219 25.9099 64.8332 25.9733C64.605 26.1507 64.3261 26.2775 64.0219 26.3028H62.374V8.65779C62.4374 7.9606 63.0078 7.40286 63.7177 7.3268H65.3783V10.0141C66.1895 9.0761 67.0768 8.35356 68.0275 7.83384C69.2191 7.18737 70.5247 6.85779 71.9191 6.85779C73.3135 6.85779 74.6318 7.22539 75.7473 7.9606C76.8628 8.69582 77.6867 9.68455 78.2191 10.9141C78.7768 12.1564 79.0304 13.9944 79.0304 16.555Z" fill="#2B2E39"></path>
    <path d="M92.3021 17.8859C92.9612 18.7986 93.2908 19.8253 93.2908 20.9662C93.2908 22.5507 92.7204 23.9197 91.6049 25.0225C90.4894 26.1253 89.0824 26.6831 87.4091 26.6831C86.3063 26.6831 85.2415 26.4422 84.2401 25.9605C83.2387 25.4788 82.4021 24.807 81.7302 23.9577L81.5781 23.7549L82.6429 22.7408C83.1246 22.2845 83.8091 22.2084 84.3542 22.4873C84.5063 22.6267 84.6711 22.7535 84.8359 22.8802C85.6345 23.476 86.4584 23.7802 87.3077 23.7802C88.157 23.7802 88.8922 23.5141 89.5007 22.9563C90.0964 22.4112 90.388 21.7901 90.388 21.0549C90.388 20.4591 90.1978 19.9394 89.8049 19.4577C89.3992 18.976 88.4359 18.3549 86.9401 17.5817C85.2288 16.6943 84.088 15.8324 83.4542 14.9577C82.8204 14.0704 82.5035 13.0563 82.5035 11.9155C82.5035 10.4324 83.0105 9.19013 84.0246 8.21408C85.0387 7.23802 86.319 6.74365 87.8528 6.74365C89.2091 6.74365 90.5781 7.25069 91.9345 8.2521C92.2007 8.44224 92.4669 8.67041 92.7331 8.89858L93.3922 9.53239L92.3908 10.5591C92.15 10.8 91.8584 10.9521 91.5415 10.9901C91.4654 11.0028 91.3894 11.0028 91.326 11.0028C91.0471 11.0028 90.7809 10.9141 90.5401 10.7493H90.5274C90.4894 10.7239 90.464 10.6986 90.426 10.6732C89.5133 9.96337 88.6133 9.60844 87.7387 9.60844C87.0542 9.60844 86.4838 9.82393 85.9894 10.2803C85.5077 10.7239 85.2795 11.231 85.2795 11.8014C85.2795 12.3211 85.4697 12.8155 85.8753 13.2971C86.2936 13.8169 87.219 14.438 88.6007 15.1479C90.4387 16.1112 91.6429 16.9986 92.3021 17.8859Z" fill="#2B2E39"></path>
    <path d="M115.069 6.62964C114.131 6.62964 113.218 6.92119 112.369 7.47893C111.735 7.89724 111.126 8.46767 110.556 9.17753V7.11133H109.009C108.173 7.11133 107.488 7.79584 107.488 8.63246V26.2902H109.035C109.871 26.2902 110.556 25.6057 110.556 24.769V19.6986C110.556 18.1014 110.594 16.7704 110.67 15.7057C110.746 14.6535 110.847 13.8676 110.987 13.3733C111.177 12.7014 111.405 12.131 111.671 11.6494C111.938 11.1677 112.242 10.7747 112.584 10.4832C112.939 10.1789 113.281 9.95076 113.623 9.79865C113.966 9.64654 114.321 9.58316 114.676 9.58316C114.701 9.58316 114.726 9.58316 114.764 9.59584C115.614 9.7226 116.45 9.36767 116.907 8.63246L117.629 7.46626L117.338 7.30147C116.552 6.85781 115.791 6.62964 115.069 6.62964Z" fill="#2B2E39"></path>
  </g>
  <defs>
    <clipPath id="clip0_8008_46662">
      <rect width="138" height="27" fill="white"></rect>
    </clipPath>
  </defs>
</svg>
